<?xml version="1.0" standalone="no"?>
<!DOCTYPE svg PUBLIC "-//W3C//DTD SVG 20010904//EN"
 "http://www.w3.org/TR/2001/REC-SVG-20010904/DTD/svg10.dtd">
<svg version="1.0" xmlns="http://www.w3.org/2000/svg"
 width="310.000000pt" height="136.000000pt" viewBox="0 0 310.000000 136.000000"
 preserveAspectRatio="xMidYMid meet">

<g transform="translate(0.000000,136.000000) scale(0.100000,-0.100000)"
fill="#000000" stroke="none">
<path d="M0 680 l0 -680 1550 0 1550 0 0 680 0 680 -1550 0 -1550 0 0 -680z
m636 395 c13 -32 -15 -46 -76 -39 -36 4 -65 2 -79 -5 -20 -11 -71 -98 -71
-121 0 -6 24 -10 55 -10 53 0 55 -1 45 -21 -10 -17 -20 -20 -66 -18 -30 2 -58
-2 -63 -7 -5 -5 -48 -84 -96 -176 -83 -160 -88 -168 -121 -174 -19 -3 -38 -4
-41 -1 -7 8 11 51 91 220 39 81 60 137 53 138 -74 7 -83 11 -72 28 3 6 28 11
55 11 46 0 49 2 74 43 30 53 81 93 155 124 66 27 149 31 157 8z m2331 -7 c23
-21 23 -23 23 -272 0 -243 -1 -250 -22 -273 l-21 -23 -524 0 c-510 0 -524 1
-543 20 -19 19 -20 33 -20 272 0 245 1 252 22 275 l21 23 521 0 520 0 23 -22z
m-1709 -139 c36 -12 43 -25 31 -57 -16 -43 -137 -82 -294 -95 -26 -2 -30 -6
-30 -31 0 -24 5 -31 30 -38 40 -12 106 -3 182 24 64 22 94 18 59 -8 -40 -29
-133 -57 -207 -62 -99 -6 -145 9 -166 53 -14 29 -14 35 2 69 51 108 269 188
393 145z m420 0 c62 -21 48 -68 -31 -104 -46 -21 -140 -40 -232 -48 -26 -2
-30 -6 -30 -31 0 -24 5 -31 30 -38 40 -12 114 -2 181 23 77 29 105 16 39 -18
-100 -52 -238 -69 -309 -39 -76 32 -57 130 38 193 91 61 235 90 314 62z m-940
-12 c8 -9 7 -21 -3 -41 -21 -40 -19 -41 16 -11 74 62 169 85 177 42 6 -30 -17
-47 -65 -47 -24 0 -56 -6 -72 -14 -36 -19 -101 -91 -135 -149 -26 -43 -31 -47
-67 -47 -51 0 -50 12 6 112 25 44 45 86 45 94 0 18 -28 17 -60 -1 -14 -8 -33
-14 -43 -15 -34 0 -11 25 52 58 66 34 130 42 149 19z m156 -523 c19 -18 21
-65 4 -82 -7 -7 -29 -12 -50 -12 -37 0 -38 -1 -38 -35 0 -19 -4 -35 -10 -35
-6 0 -10 37 -10 90 l0 90 44 0 c27 0 51 -6 60 -16z m162 -74 c23 -66 28 -90
19 -90 -8 0 -17 9 -20 20 -9 29 -81 29 -90 0 -6 -19 -25 -28 -25 -12 0 4 12
44 27 90 18 54 33 82 43 82 10 0 26 -30 46 -90z m168 74 c20 -20 21 -58 1 -74
-10 -8 -12 -17 -6 -24 6 -6 14 -24 20 -39 8 -21 8 -27 -3 -27 -8 0 -20 16 -26
35 -10 29 -16 35 -41 35 -27 0 -29 -3 -29 -35 0 -19 -4 -35 -10 -35 -6 0 -10
37 -10 90 l0 90 44 0 c27 0 51 -6 60 -16z m176 6 c0 -5 -13 -10 -30 -10 l-30
0 0 -80 c0 -47 -4 -80 -10 -80 -6 0 -10 33 -10 80 l0 80 -31 0 c-17 0 -28 4
-24 10 3 6 35 10 71 10 36 0 64 -4 64 -10z m140 0 c0 -5 -18 -10 -40 -10 -38
0 -40 -2 -40 -30 0 -28 3 -30 35 -30 19 0 35 -4 35 -10 0 -5 -16 -10 -35 -10
-31 0 -35 -3 -35 -25 0 -14 0 -28 0 -32 0 -5 21 -11 47 -14 l48 -6 -62 -1 -63
-2 0 90 0 90 55 0 c30 0 55 -4 55 -10z m112 -57 l43 -68 3 68 c4 100 22 82 22
-23 0 -65 -3 -90 -12 -90 -7 0 -32 31 -55 68 l-42 67 -1 -67 c0 -54 -3 -68
-15 -68 -12 0 -15 17 -15 90 0 113 13 117 72 23z m226 -23 c24 -68 28 -90 17
-90 -7 0 -17 9 -20 20 -9 29 -81 29 -90 0 -6 -19 -25 -28 -25 -12 0 11 47 149
55 162 16 26 34 3 63 -80z m90 -3 c2 -73 0 -87 -13 -87 -12 0 -15 16 -15 91 0
68 3 90 13 87 8 -3 13 -33 15 -91z m154 76 c22 -20 24 -59 3 -71 -14 -7 -14
-11 0 -38 17 -33 19 -54 6 -54 -5 0 -15 16 -21 35 -10 29 -16 35 -41 35 -27 0
-29 -3 -29 -35 0 -19 -4 -35 -10 -35 -6 0 -10 37 -10 90 l0 90 42 0 c24 0 49
-7 60 -17z m173 7 c4 -6 -12 -10 -39 -10 -44 0 -46 -1 -46 -30 0 -28 2 -30 40
-30 22 0 40 -4 40 -10 0 -5 -18 -10 -40 -10 -39 0 -40 -1 -40 -34 0 -34 1 -35
48 -39 42 -3 41 -4 -15 -5 l-63 -2 0 90 0 90 54 0 c30 0 58 -4 61 -10z"/>
<path d="M1908 1049 c-16 -9 -18 -32 -18 -252 0 -176 3 -246 12 -255 17 -17
1029 -17 1046 0 9 9 12 78 12 249 0 203 -2 240 -16 253 -14 14 -74 16 -517 16
-322 0 -508 -4 -519 -11z m271 -124 c38 -19 53 -62 36 -102 -16 -39 -42 -53
-94 -53 l-41 0 0 -49 c0 -49 -18 -79 -40 -66 -11 7 -15 267 -3 278 12 13 114
7 142 -8z m270 0 c38 -19 53 -62 36 -102 -7 -17 -21 -35 -31 -41 -16 -9 -15
-13 14 -53 34 -45 39 -64 21 -74 -14 -9 -43 18 -77 72 -21 34 -33 43 -54 43
-27 0 -28 -2 -28 -54 0 -58 -11 -76 -35 -56 -19 16 -22 249 -3 268 17 17 123
15 157 -3z m315 -8 c68 -39 93 -114 60 -183 -35 -73 -111 -100 -188 -66 -37
17 -51 30 -66 64 -24 54 -24 72 0 126 15 33 29 47 62 62 56 25 84 25 132 -3z"/>
<path d="M2080 854 c0 -35 0 -35 41 -32 79 6 76 68 -2 68 -38 0 -39 -1 -39
-36z"/>
<path d="M2330 854 l0 -35 51 3 c95 6 93 68 -2 68 l-49 0 0 -36z"/>
<path d="M2629 861 c-21 -22 -29 -39 -29 -66 0 -51 44 -95 95 -95 51 0 95 44
95 95 0 27 -8 44 -29 66 -41 40 -91 40 -132 0z"/>
<path d="M1074 885 c-28 -14 -61 -36 -74 -50 l-23 -25 33 0 c50 0 147 30 166
51 9 10 14 25 11 34 -9 22 -56 18 -113 -10z"/>
<path d="M1512 895 c-39 -17 -102 -64 -102 -76 0 -25 152 8 183 40 43 43 -10
67 -81 36z"/>
<path d="M810 356 c0 -34 2 -36 35 -36 63 0 59 62 -4 68 -30 3 -31 2 -31 -32z"/>
<path d="M996 346 c-3 -13 -9 -31 -12 -40 -5 -13 1 -16 26 -16 25 0 31 3 26
16 -3 9 -9 27 -12 40 -8 31 -20 31 -28 0z"/>
<path d="M1140 354 c0 -34 1 -35 31 -32 63 6 61 68 -2 68 -27 0 -29 -3 -29
-36z"/>
<path d="M1813 330 l-10 -40 29 0 c24 0 29 4 24 16 -3 9 -9 27 -12 40 -9 35
-18 30 -31 -16z"/>
<path d="M2040 355 c0 -35 1 -36 33 -33 28 3 32 6 32 33 0 27 -4 30 -32 33
-32 3 -33 2 -33 -33z"/>
</g>
</svg>
